<svg width="24" height="24" fill="none" xmlns="http://www.w3.org/2000/svg"><path d="m12 20.325-1.104-.992a123.219 123.219 0 0 1-4.112-3.877C5.7 14.376 4.84 13.413 4.207 12.57c-.634-.842-1.077-1.611-1.329-2.306A6.162 6.162 0 0 1 2.5 8.148c0-1.419.478-2.607 1.436-3.564.957-.957 2.145-1.436 3.564-1.436.873 0 1.698.205 2.475.613.777.408 1.452.994 2.025 1.757.573-.763 1.248-1.349 2.025-1.757a5.245 5.245 0 0 1 2.475-.613c1.42 0 2.607.479 3.564 1.436.957.957 1.436 2.145 1.436 3.564 0 .716-.126 1.42-.378 2.116-.252.695-.695 1.464-1.329 2.306-.634.843-1.491 1.805-2.572 2.886-1.08 1.08-2.453 2.373-4.117 3.877L12 20.325Zm0-2.027c1.6-1.44 2.917-2.673 3.95-3.702 1.033-1.028 1.85-1.921 2.45-2.68.6-.758 1.017-1.431 1.25-2.02.233-.588.35-1.17.35-1.748 0-1-.333-1.833-1-2.5-.667-.666-1.5-1-2.5-1-.79 0-1.52.224-2.19.672-.67.449-1.2 1.072-1.59 1.87h-1.44c-.397-.804-.929-1.43-1.595-1.874A3.856 3.856 0 0 0 7.5 4.648c-.994 0-1.825.334-2.495 1-.67.667-1.005 1.5-1.005 2.5 0 .577.117 1.16.35 1.748.233.589.65 1.262 1.25 2.02.6.759 1.417 1.65 2.45 2.676 1.033 1.025 2.35 2.26 3.95 3.706Z" fill="#1D1D1D"/></svg>